# Blender 4.2.0
# www.blender.org
mtllib grass blades.mtl
o grass_blades
v 0.140170 -0.088489 0.002253
v 0.297089 0.432826 0.308706
v 0.264280 0.414263 0.141436
v 0.229853 0.294330 0.054237
v 0.218264 0.102921 0.011218
v 0.101795 0.102921 0.070856
v 0.129925 0.294330 0.105405
v 0.180551 0.414263 0.184310
v -0.026299 -0.099455 -0.203626
v -0.201832 0.528486 -0.391520
v -0.127753 0.477893 -0.243327
v -0.084514 0.330804 -0.183713
v -0.082705 0.115675 -0.168167
v 0.012911 0.115675 -0.257492
v -0.002476 0.330804 -0.260353
v -0.059015 0.477893 -0.307543
v 0.141022 -0.089807 -0.072159
v 0.278208 0.417961 -0.453386
v 0.177855 0.414197 -0.313421
v 0.132968 0.298713 -0.215561
v 0.101844 0.104453 -0.156509
v 0.224964 0.104453 -0.112204
v 0.238604 0.298713 -0.177547
v 0.266366 0.414197 -0.281570
v 0.058835 -0.111263 0.077302
v 0.011642 0.574857 0.392850
v 0.082347 0.529842 0.238073
v 0.104298 0.370080 0.152826
v 0.118513 0.129409 0.120589
v -0.010897 0.129409 0.101235
v -0.006734 0.370080 0.136220
v -0.010685 0.529842 0.224160
v -0.130718 -0.110293 -0.125742
v -0.438022 0.558268 0.050745
v -0.270948 0.521836 0.009031
v -0.183374 0.366854 -0.030769
v -0.138441 0.128281 -0.045860
v -0.203606 0.128281 -0.159328
v -0.239285 0.366854 -0.128123
v -0.317795 0.521836 -0.072541
v -0.086785 -0.136830 -0.123114
v 0.103524 0.744781 -0.012760
v -0.007516 0.662662 -0.131518
v -0.058627 0.455122 -0.171674
v -0.053966 0.159146 -0.179711
v -0.119604 0.159146 -0.066516
v -0.114943 0.455122 -0.074554
v -0.054704 0.662662 -0.050142
v -0.146527 -0.124413 -0.022196
v -0.052310 0.644149 0.303749
v -0.053004 0.592860 0.131975
v -0.069892 0.413821 0.040778
v -0.072321 0.144704 -0.001083
v -0.198024 0.144704 0.035253
v -0.177744 0.413821 0.071954
v -0.143371 0.592860 0.158097
v 0.259408 -0.110530 -0.016737
v 0.178158 0.641240 -0.044988
v 0.295837 0.546880 0.045726
v 0.323654 0.367642 0.065033
v 0.279262 0.128556 0.059433
v 0.322236 0.128556 -0.064158
v 0.360525 0.367642 -0.041007
v 0.326731 0.546880 -0.043124
vn -0.0000 1.0000 -0.0000
vn 0.0001 1.0000 -0.0000
vn -0.0000 1.0000 -0.0001
vn -0.0001 1.0000 -0.0000
vn -0.0000 1.0000 0.0001
vn 0.0001 1.0000 0.0001
vt 0.000000 0.750000
vt 1.000000 0.750000
vt 0.000000 1.000000
vt 1.000000 0.000000
vt 1.000000 0.250000
vt 0.000000 0.250000
vt 1.000000 0.500000
vt 0.000000 0.500000
s 0
usemtl grass_blades
f 3/1/1 8/2/1 2/3/1
f 1/4/1 6/5/1 5/6/2
f 5/6/1 6/5/2 7/7/1 4/8/1
f 4/8/1 7/7/1 8/2/1 3/1/1
f 11/1/1 16/2/1 10/3/1
f 9/4/3 14/5/4 13/6/4
f 13/6/4 14/5/1 15/7/1 12/8/3
f 12/8/1 15/7/5 16/2/1 11/1/2
f 19/1/1 24/2/1 18/3/1
f 17/4/5 22/5/5 21/6/5
f 21/6/5 22/5/5 23/7/1 20/8/5
f 20/8/1 23/7/1 24/2/2 19/1/1
f 27/1/3 32/2/3 26/3/3
f 25/4/1 30/5/1 29/6/2
f 29/6/1 30/5/2 31/7/4 28/8/1
f 28/8/1 31/7/2 32/2/1 27/1/3
f 35/1/1 40/2/1 34/3/1
f 33/4/1 38/5/1 37/6/6
f 37/6/1 38/5/5 39/7/3 36/8/1
f 36/8/1 39/7/1 40/2/1 35/1/3
f 43/1/1 48/2/1 42/3/1
f 41/4/1 46/5/1 45/6/3
f 45/6/3 46/5/1 47/7/3 44/8/1
f 44/8/1 47/7/3 48/2/1 43/1/1
f 51/1/3 56/2/3 50/3/1
f 49/4/1 54/5/1 53/6/1
f 53/6/1 54/5/2 55/7/1 52/8/1
f 52/8/1 55/7/1 56/2/1 51/1/1
f 59/1/1 64/2/5 58/3/3
f 57/4/1 62/5/1 61/6/5
f 61/6/1 62/5/5 63/7/3 60/8/1
f 60/8/1 63/7/4 64/2/1 59/1/3
